<svg width="562.9375244140625px" height="124.42255859375px" xmlns="http://www.w3.org/2000/svg" viewBox="-31.46876220703126 12.788720703125001 562.9375244140625 124.42255859375" style="background: rgb(255, 255, 255);" preserveAspectRatio="xMidYMid"><defs><filter id="editing-extrusion" x="-100%" y="-100%" width="300%" height="300%"><feFlood result="color1" flood-color="#ffffff"></feFlood><feConvolveMatrix order="8,8" divisor="1" kernelMatrix="1 0 0 0 0 0 0 0 0 1 0 0 0 0 0 0 0 0 1 0 0 0 0 0 0 0 0 1 0 0 0 0 0 0 0 0 1 0 0 0 0 0 0 0 0 1 0 0 0 0 0 0 0 0 1 0 0 0 0 0 0 0 0 1" in="SourceAlpha" result="extrude"></feConvolveMatrix><feComposite in="color1" in2="extrude" result="comp-extrude" operator="in"></feComposite><feOffset dx="4" dy="4" in="comp-extrude" result="offset-extrude"></feOffset><feMerge><feMergeNode in="offset-extrude"></feMergeNode><feMergeNode in="SourceGraphic"></feMergeNode></feMerge></filter></defs><g filter="url(#editing-extrusion)"><g transform="translate(51.670001745224, 97.40500068664551)"><path d="M1.91-38.41L1.91-44.81L37.75-44.81L37.75-38.41L23.03-38.41L23.03 0L16.63 0L16.63-38.41L1.91-38.41ZM45.44-44.81L51.84-44.81L51.84 0L45.44 0L45.44-44.81ZM63.34 0L63.34-44.81L96-44.81L96-38.41L69.75-38.41L69.75-25.59L92.16-25.59L92.16-19.19L69.75-19.19L69.75-6.41L96-6.41L96 0L63.34 0ZM105.59-6.41L105.59-38.41L105.59-38.41Q105.59-39.72 106.09-40.89L106.09-40.89L106.09-40.89Q106.59-42.06 107.47-42.92L107.47-42.92L107.47-42.92Q108.34-43.78 109.52-44.30L109.52-44.30L109.52-44.30Q110.69-44.81 112-44.81L112-44.81L136.31-44.81L136.31-44.81Q137.63-44.81 138.80-44.30L138.80-44.30L138.80-44.30Q139.97-43.78 140.84-42.92L140.84-42.92L140.84-42.92Q141.72-42.06 142.22-40.89L142.22-40.89L142.22-40.89Q142.72-39.72 142.72-38.41L142.72-38.41L142.72-32.63L136.31-32.63L136.31-38.41L112-38.41L112-6.41L136.31-6.41L136.31-17.28L124.16-17.28L124.16-23.69L142.72-23.69L142.72-6.41L142.72-6.41Q142.72-5.09 142.22-3.92L142.22-3.92L142.22-3.92Q141.72-2.75 140.84-1.88L140.84-1.88L140.84-1.88Q139.97-1 138.80-0.50L138.80-0.50L138.80-0.50Q137.63 0 136.31 0L136.31 0L112 0L112 0Q110.69 0 109.52-0.50L109.52-0.50L109.52-0.50Q108.34-1 107.47-1.88L107.47-1.88L107.47-1.88Q106.59-2.75 106.09-3.92L106.09-3.92L106.09-3.92Q105.59-5.09 105.59-6.41L105.59-6.41ZM154.22-6.41L154.22-44.81L160.63-44.81L160.63-6.41L186.22-6.41L186.22-44.81L192.63-44.81L192.63-6.41L192.63-6.41Q192.63-5.09 192.13-3.92L192.13-3.92L192.13-3.92Q191.63-2.75 190.75-1.88L190.75-1.88L190.75-1.88Q189.88-1 188.70-0.50L188.70-0.50L188.70-0.50Q187.53 0 186.22 0L186.22 0L160.63 0L160.63 0Q159.31 0 158.14-0.50L158.14-0.50L158.14-0.50Q156.97-1 156.09-1.88L156.09-1.88L156.09-1.88Q155.22-2.75 154.72-3.92L154.72-3.92L154.72-3.92Q154.22-5.09 154.22-6.41L154.22-6.41ZM199.66-44.81L207.09-44.81L220.13-23.88L233.19-44.81L240.63-44.81L223.34-17.78L223.34 0L216.94 0L216.94-17.78L199.66-44.81ZM243.81-44.81L257.91-44.81L257.91 0L251.50 0L251.50-38.41L243.81-38.41L243.81-44.81ZM296.13-38.41L275.84-38.41L275.84-32.63L269.44-32.63L269.44-38.41L269.44-38.41Q269.44-39.72 269.94-40.89L269.94-40.89L269.94-40.89Q270.44-42.06 271.31-42.92L271.31-42.92L271.31-42.92Q272.19-43.78 273.36-44.30L273.36-44.30L273.36-44.30Q274.53-44.81 275.84-44.81L275.84-44.81L296.13-44.81L296.13-44.81Q297.44-44.81 298.61-44.30L298.61-44.30L298.61-44.30Q299.78-43.78 300.64-42.92L300.64-42.92L300.64-42.92Q301.50-42.06 302.02-40.89L302.02-40.89L302.02-40.89Q302.53-39.72 302.53-38.41L302.53-38.41L302.53-30.22L302.53-30.22Q302.53-28.91 302.28-27.88L302.28-27.88L302.28-27.88Q302.03-26.84 301.48-26.02L301.48-26.02L301.48-26.02Q300.94-25.19 300.09-24.53L300.09-24.53L300.09-24.53Q299.25-23.88 298.03-23.28L298.03-23.28L275.84-12.88L275.84-6.41L296.94-6.41L296.94-12.16L303.34-12.16L303.34 0L269.44 0L269.44-11.78L269.44-11.78Q269.44-13.09 269.70-14.13L269.70-14.13L269.70-14.13Q269.97-15.16 270.50-15.97L270.50-15.97L270.50-15.97Q271.03-16.78 271.89-17.45L271.89-17.45L271.89-17.45Q272.75-18.13 273.91-18.69L273.91-18.69L296.13-29.13L296.13-38.41ZM349.44-38.41L349.44-6.41L349.44-6.41Q349.44-5.09 348.94-3.92L348.94-3.92L348.94-3.92Q348.44-2.75 347.56-1.88L347.56-1.88L347.56-1.88Q346.69-1 345.52-0.50L345.52-0.50L345.52-0.50Q344.34 0 343.03 0L343.03 0L320.63 0L320.63 0Q319.31 0 318.14-0.50L318.14-0.50L318.14-0.50Q316.97-1 316.09-1.88L316.09-1.88L316.09-1.88Q315.22-2.75 314.72-3.92L314.72-3.92L314.72-3.92Q314.22-5.09 314.22-6.41L314.22-6.41L314.22-38.41L314.22-38.41Q314.22-39.72 314.72-40.89L314.72-40.89L314.72-40.89Q315.22-42.06 316.09-42.92L316.09-42.92L316.09-42.92Q316.97-43.78 318.14-44.30L318.14-44.30L318.14-44.30Q319.31-44.81 320.63-44.81L320.63-44.81L343.03-44.81L343.03-44.81Q344.34-44.81 345.52-44.30L345.52-44.30L345.52-44.30Q346.69-43.78 347.56-42.92L347.56-42.92L347.56-42.92Q348.44-42.06 348.94-40.89L348.94-40.89L348.94-40.89Q349.44-39.72 349.44-38.41L349.44-38.41ZM343.03-38.41L320.63-38.41L320.63-6.41L343.03-6.41L343.03-38.41ZM370.94-25.78L383.47-25.78L383.47-25.78Q385.81-25.88 386.81-27.05L386.81-27.05L386.81-27.05Q387.81-28.22 387.81-30.66L387.81-30.66L387.81-33.59L387.81-33.59Q387.81-36.16 386.69-37.34L386.69-37.34L386.69-37.34Q385.56-38.53 383.03-38.53L383.03-38.53L371.38-38.53L371.38-38.53Q368.84-38.53 367.72-37.34L367.72-37.34L367.72-37.34Q366.59-36.16 366.59-33.59L366.59-33.59L366.59-30.66L366.59-30.66Q366.59-28.22 367.61-27.05L367.61-27.05L367.61-27.05Q368.63-25.88 370.94-25.78L370.94-25.78ZM370.75-6.28L383.66-6.28L383.66-6.28Q386.22-6.28 387.34-7.47L387.34-7.47L387.34-7.47Q388.47-8.66 388.47-11.19L388.47-11.19L388.47-14.66L388.47-14.66Q388.47-17.22 387.34-18.38L387.34-18.38L387.34-18.38Q386.22-19.53 383.66-19.53L383.66-19.53L370.75-19.53L370.75-19.53Q368.19-19.53 367.06-18.38L367.06-18.38L367.06-18.38Q365.94-17.22 365.94-14.66L365.94-14.66L365.94-11.19L365.94-11.19Q365.94-8.66 367.06-7.47L367.06-7.47L367.06-7.47Q368.19-6.28 370.75-6.28L370.75-6.28ZM383.88 0L370.56 0L370.56 0Q359.66 0 359.66-10.88L359.66-10.88L359.66-13.13L359.66-13.13Q359.66-17.31 361.16-19.84L361.16-19.84L361.16-19.84Q362.66-22.38 365.50-23.22L365.50-23.22L365.50-23.22Q362.97-24.41 361.64-26.86L361.64-26.86L361.64-26.86Q360.31-29.31 360.31-33.09L360.31-33.09L360.31-33.91L360.31-33.91Q360.31-44.81 371.19-44.81L371.19-44.81L383.22-44.81L383.22-44.81Q394.09-44.81 394.09-33.91L394.09-33.91L394.09-33.09L394.09-33.09Q394.09-29.31 392.77-26.86L392.77-26.86L392.77-26.86Q391.44-24.41 388.91-23.22L388.91-23.22L388.91-23.22Q391.75-22.38 393.25-19.84L393.25-19.84L393.25-19.84Q394.75-17.31 394.75-13.13L394.75-13.13L394.75-10.88L394.75-10.88Q394.75 0 383.88 0L383.88 0Z" fill="#000000"></path></g></g><style>text {
  font-size: 64px;
  font-family: Arial Black;
  dominant-baseline: central;
  text-anchor: middle;
}</style></svg>